<?xml version="1.0" encoding="UTF-8"?>
<svg xmlns="http://www.w3.org/2000/svg" viewBox="0 0 1024 1024" width="1024" height="1024">
  <!-- Siluet kepala (isi gelap) -->
  <path d="M275 80 L160 240 L230 210 C260 190 300 180 320 205 L360 270
           C370 285 385 300 405 305 C425 310 450 320 455 338
           C462 364 452 388 432 410 C420 422 414 430 414 438
           C414 446 420 456 436 468 C470 492 506 522 514 548
           C520 568 512 596 488 604 L420 626
           C380 638 354 666 352 704 L348 762
           C346 798 350 826 360 860 C372 900 404 938 456 956
           C612 1010 770 922 812 820
           C856 714 844 620 810 542
           C774 460 716 412 658 388
           C622 374 592 356 588 334
           C584 312 606 290 640 284 L716 270
           L650 230 C602 202 562 182 512 172
           C472 164 438 150 408 130 L352 96 Z"
        fill="#24292e" stroke="#24292e" stroke-width="8" stroke-linejoin="round"/>

  <!-- Highlight tepi (memberi kesan timbul flat) -->
  <path d="M275 80 L160 240 L230 210 C260 190 300 180 320 205 L360 270
           C370 285 385 300 405 305 C425 310 450 320 455 338
           C462 364 452 388 432 410 C420 422 414 430 414 438
           C414 446 420 456 436 468 C470 492 506 522 514 548
           C520 568 512 596 488 604 L420 626
           C380 638 354 666 352 704 L348 762
           C346 798 350 826 360 860 C372 900 404 938 456 956
           C612 1010 770 922 812 820
           C856 714 844 620 810 542
           C774 460 716 412 658 388
           C622 374 592 356 588 334
           C584 312 606 290 640 284 L716 270
           L650 230 C602 202 562 182 512 172
           C472 164 438 150 408 130 L352 96 Z"
        fill="none" stroke="#ffffff" stroke-width="6" stroke-linejoin="round" />

  <!-- Mata & telinga dalam -->
  <path d="M480 384 L536 420 L468 430 Z" fill="#ffffff" stroke="#24292e" stroke-width="10" stroke-linejoin="round"/>
  <path d="M290 178 L376 116 L336 210 Z" fill="#ffffff" stroke="#24292e" stroke-width="10" stroke-linejoin="round"/>

  <!-- Lubang hidung & bukaan mulut (negatif/putih) -->
  <path d="M380 578 C370 566 372 548 392 536 C414 524 438 536 446 552 C454 568 446 584 430 592 C412 600 392 592 380 578 Z"
        fill="#ffffff" stroke="#24292e" stroke-width="10" stroke-linejoin="round"/>
  <path d="M302 672 L302 820 L368 792 L368 644 Z"
        fill="#ffffff" stroke="#24292e" stroke-width="10" stroke-linejoin="round"/>

  <!-- Gigi kotak -->
  <rect x="318" y="675" width="32" height="36" rx="6" fill="#24292e" stroke="#24292e" stroke-width="8"/>
  <rect x="318" y="720" width="32" height="36" rx="6" fill="#24292e" stroke="#24292e" stroke-width="8"/>
  <rect x="318" y="765" width="32" height="36" rx="6" fill="#24292e" stroke="#24292e" stroke-width="8"/>

  <!-- Rambut kepala (3 helai + kotak) -->
  <g fill="none" stroke-linecap="round" stroke-linejoin="round">
    <path d="M390 250 C360 260 340 280 332 312" stroke="#ffffff" stroke-width="20"/>
    <rect x="323" y="303" width="18" height="18" rx="2" fill="#ffffff" stroke="#24292e" stroke-width="6"/>
    <path d="M430 266 C404 274 388 292 380 324" stroke="#ffffff" stroke-width="20"/>
    <rect x="371" y="315" width="18" height="18" rx="2" fill="#ffffff" stroke="#24292e" stroke-width="6"/>
    <path d="M468 286 C446 292 430 310 424 342" stroke="#ffffff" stroke-width="20"/>
    <rect x="415" y="333" width="18" height="18" rx="2" fill="#ffffff" stroke="#24292e" stroke-width="6"/>
  </g>

  <!-- Rambut leher (helai panjang berombak + kotak ujung) -->
  <g fill="none" stroke-linecap="round" stroke-linejoin="round">
    <path d="M612 336 C600 380 602 418 626 456 C650 492 654 530 640 560" stroke="#ffffff" stroke-width="22"/>
    <rect x="631" y="551" width="18" height="18" rx="2" fill="#ffffff" stroke="#24292e" stroke-width="6"/>
    <path d="M650 350 C640 392 650 428 682 468 C708 500 710 540 694 574" stroke="#ffffff" stroke-width="22"/>
    <rect x="685" y="565" width="18" height="18" rx="2" fill="#ffffff" stroke="#24292e" stroke-width="6"/>
    <path d="M682 360 C676 406 690 440 724 476 C754 508 758 556 740 594" stroke="#ffffff" stroke-width="22"/>
    <rect x="731" y="585" width="18" height="18" rx="2" fill="#ffffff" stroke="#24292e" stroke-width="6"/>
    <path d="M712 372 C710 414 726 450 762 484 C792 512 800 560 790 604" stroke="#ffffff" stroke-width="22"/>
    <rect x="781" y="595" width="18" height="18" rx="2" fill="#ffffff" stroke="#24292e" stroke-width="6"/>
    <path d="M736 384 C742 432 768 470 808 506 C844 538 850 590 838 632" stroke="#ffffff" stroke-width="22"/>
    <rect x="829" y="623" width="18" height="18" rx="2" fill="#ffffff" stroke="#24292e" stroke-width="6"/>
    <path d="M758 398 C774 450 816 488 864 520 C896 542 908 586 900 620" stroke="#ffffff" stroke-width="22"/>
    <rect x="891" y="611" width="18" height="18" rx="2" fill="#ffffff" stroke="#24292e" stroke-width="6"/>
  </g>
</svg>
